<svg width="349" height="233" viewBox="0 0 349 233" fill="none" xmlns="http://www.w3.org/2000/svg">
<g style="mix-blend-mode:multiply" clip-path="url(#clip0)">
<path opacity="0.1" d="M202.772 38.4145C180.398 37.6349 159.091 30.4373 138.756 22.5538C118.421 14.6703 98.2525 5.93468 76.415 1.75875C62.3535 -0.927502 46.2897 -1.30521 34.9726 6.20965C24.0826 13.4375 20.5627 25.9169 18.6725 37.4929C17.2487 46.2043 16.4127 55.375 20.3113 63.5275C23.0194 69.1901 27.8267 73.9492 31.1528 79.373C42.7304 98.2403 34.5515 121.51 22.0076 139.936C16.1249 148.578 9.30316 156.824 4.76542 166.025C0.227678 175.226 -1.87156 185.769 2.09972 195.154C6.03768 204.455 15.413 211.444 25.573 216.357C46.2079 226.328 70.5233 229.196 94.2328 230.816C146.72 234.396 199.485 232.846 252.112 231.293C271.586 230.719 291.149 230.136 310.306 227.132C320.947 225.464 331.931 222.817 339.655 216.423C349.461 208.31 351.89 194.571 345.32 184.394C334.3 167.327 303.82 163.091 296.123 144.774C291.882 134.694 296.238 123.462 302.399 114.113C315.619 94.0553 337.774 76.4602 338.944 53.5318C339.743 37.786 329.093 22.019 312.623 14.5525C295.356 6.74449 271.426 7.72653 258.688 20.6532C245.575 33.9787 222.528 39.1004 202.772 38.4145Z" fill="#CF8349"/>
<g opacity="0.5">
<path opacity="0.5" d="M151.69 121.646L141.554 121.855L139.897 124.124V131.965L141.966 133.41H151.69L153.759 131.141V123.71L151.69 121.646Z" fill="#CF8349"/>
<path opacity="0.2" d="M151.478 122.885C151.478 122.885 142.169 124.329 141.342 122.885L141.551 121.854L151.478 121.637V122.885Z" fill="white"/>
<path opacity="0.5" d="M152.517 144.344L154.171 145.997V153.854L152.517 155.479C152.517 155.479 146.519 157.543 142.587 155.89L140.724 154.035V146.179L142.381 144.32L152.517 144.344Z" fill="#CF8349"/>
<path opacity="0.2" d="M152.102 146.203C152.102 146.203 144.862 147.853 142.381 146.203V144.344H152.517L152.102 146.203Z" fill="white"/>
<path opacity="0.5" d="M148.585 133.355V144.517C148.562 144.959 148.364 145.373 148.034 145.67C147.705 145.967 147.271 146.121 146.828 146.1C146.385 146.121 145.951 145.967 145.622 145.67C145.293 145.373 145.095 144.959 145.071 144.517V133.355C145.071 132.406 145.98 131.672 147.034 131.78C147.442 131.805 147.826 131.98 148.113 132.271C148.399 132.561 148.567 132.948 148.585 133.355Z" fill="#CF8349"/>
<path opacity="0.5" d="M167.924 121.966L157.788 122.172L156.131 124.441V132.282L158.2 133.726H167.924L169.993 131.457V124.027L167.924 121.966Z" fill="#CF8349"/>
<path opacity="0.2" d="M167.715 123.202C167.715 123.202 158.406 124.646 157.579 123.202L157.785 122.172L167.715 121.966V123.202Z" fill="white"/>
<path opacity="0.5" d="M168.745 144.662L170.398 146.315V154.171L168.745 155.806C168.745 155.806 162.744 157.87 158.815 156.217L156.952 154.361V146.52L158.609 144.662H168.745Z" fill="#CF8349"/>
<path opacity="0.2" d="M168.336 146.52C168.336 146.52 161.096 148.17 158.615 146.52V144.662H168.745L168.336 146.52Z" fill="white"/>
<path opacity="0.5" d="M164.807 133.672V144.834C164.782 145.276 164.584 145.69 164.255 145.986C163.926 146.283 163.493 146.438 163.05 146.417C162.606 146.439 162.172 146.284 161.842 145.988C161.513 145.691 161.314 145.276 161.29 144.834V133.672C161.29 132.723 162.198 131.989 163.256 132.098C163.663 132.123 164.048 132.297 164.334 132.588C164.62 132.879 164.789 133.265 164.807 133.672Z" fill="#CF8349"/>
<path opacity="0.5" d="M188.589 127.934L180.243 128.106L178.88 129.973V136.428L180.583 137.618H188.589L190.291 135.748V129.632L188.589 127.934Z" fill="#CF8349"/>
<path opacity="0.2" d="M188.416 128.955C188.416 128.955 180.755 130.143 180.074 128.955L180.243 128.106L188.422 127.934L188.416 128.955Z" fill="white"/>
<path opacity="0.5" d="M189.267 146.62L190.63 147.98V154.434L189.267 155.794C189.267 155.794 184.33 157.492 181.088 156.132L179.556 154.603V148.149L180.919 146.62H189.267Z" fill="#CF8349"/>
<path opacity="0.2" d="M188.928 148.149C188.928 148.149 182.967 149.509 180.925 148.149V146.62H189.267L188.928 148.149Z" fill="white"/>
<path opacity="0.5" d="M186.032 137.573V146.762C186.013 147.126 185.849 147.467 185.578 147.711C185.306 147.955 184.949 148.082 184.584 148.064C184.22 148.082 183.863 147.955 183.592 147.711C183.321 147.467 183.158 147.126 183.139 146.762V137.573C183.151 137.379 183.203 137.189 183.293 137.016C183.382 136.843 183.507 136.69 183.659 136.568C183.811 136.446 183.987 136.357 184.175 136.307C184.364 136.257 184.561 136.246 184.754 136.277C185.09 136.297 185.406 136.441 185.642 136.68C185.878 136.92 186.017 137.238 186.032 137.573Z" fill="#CF8349"/>
<path opacity="0.5" d="M201.951 128.197L193.605 128.366L192.245 130.233V136.691L193.947 137.878H201.951L203.653 136.011V129.895L201.951 128.197Z" fill="#CF8349"/>
<path opacity="0.2" d="M201.781 129.215C201.781 129.215 194.117 130.406 193.436 129.215L193.605 128.366L201.784 128.197L201.781 129.215Z" fill="white"/>
<path opacity="0.5" d="M202.632 146.883L203.992 148.239V154.694L202.632 156.053C202.632 156.053 197.692 157.751 194.453 156.395L192.924 154.875V148.412L194.287 146.883H202.632Z" fill="#CF8349"/>
<path opacity="0.2" d="M202.29 148.412C202.29 148.412 196.331 149.768 194.287 148.412V146.883H202.632L202.29 148.412Z" fill="white"/>
<path opacity="0.5" d="M199.397 137.833V147.019C199.377 147.383 199.214 147.724 198.943 147.968C198.671 148.212 198.314 148.339 197.949 148.321C197.584 148.339 197.227 148.212 196.955 147.968C196.684 147.724 196.521 147.383 196.501 147.019V137.833C196.501 137.053 197.258 136.449 198.119 136.54C198.454 136.559 198.771 136.703 199.007 136.941C199.243 137.18 199.382 137.498 199.397 137.833Z" fill="#CF8349"/>
</g>
<path d="M317.781 161.544C317.13 160.368 315.912 159.595 314.631 159.238C313.334 158.927 311.994 158.844 310.669 158.99C308.528 159.142 306.405 159.491 304.328 160.033C303.041 160.371 301.705 160.825 300.836 161.846C300.812 161.876 300.784 161.912 300.757 161.943C299.427 162.29 298.106 162.825 296.819 163.26C295.527 163.688 294.212 164.044 292.881 164.327C294.623 163.339 296.319 162.293 297.755 160.897C298.434 160.24 299.043 159.515 299.573 158.734C300.557 159.015 301.589 159.084 302.602 158.936C304.653 158.586 306.31 157.123 307.851 155.697L312.81 151.146C313.601 150.421 314.404 149.678 314.931 148.729C315.642 147.408 315.706 145.837 315.724 144.329C315.748 142.257 315.724 140.184 315.664 138.114L317.233 139.323C316.994 136.77 317.47 134.201 318.608 131.901C319.153 130.804 319.868 129.714 319.883 128.484C319.908 126.586 318.272 125.094 316.597 124.254C314.922 123.414 313.037 122.876 311.665 121.585C309.623 119.667 309.242 116.606 308.233 113.977C307.635 112.538 306.926 111.146 306.113 109.816L304.15 106.402C303.163 104.602 302.062 102.867 300.854 101.207C298.812 98.5211 296.24 96.3062 293.687 94.1155L280.407 82.7027C277.178 79.9258 273.936 77.1459 270.444 74.7165C263.359 69.7882 255.364 66.4039 247.422 63.0529C245.423 62.2068 243.342 61.3487 241.179 61.4514C239.55 61.5567 238.006 62.2158 236.805 63.3188C235.666 62.9739 234.553 62.5519 233.472 62.0557L233.388 62.0165C233.412 61.8382 233.439 61.6629 233.457 61.4846C233.485 61.2489 233.5 61.0133 233.518 60.7745C234.116 60.6826 234.695 60.4938 235.232 60.2155C235.505 60.087 235.746 59.9003 235.938 59.6686C236.182 59.2651 236.307 58.8012 236.299 58.33C236.541 55.1724 236.783 51.9845 236.523 48.842C236.262 45.6995 235.472 42.5177 233.797 39.8466C233.279 39.0186 232.63 38.2118 231.731 37.8523C230.519 37.3688 229.116 37.819 227.823 37.6015C225.584 37.2238 224.188 35.0391 222.567 33.4286C218.469 29.3523 211.459 28.7389 206.728 32.0386C204.934 33.2926 203.499 34.9938 201.899 36.4925C200.3 37.9913 198.425 39.348 196.265 39.6411C195.867 39.6579 195.477 39.761 195.123 39.9432C194.681 40.2212 194.481 40.7561 194.311 41.2516C193.705 42.9619 193.124 44.7175 192.939 46.5063C192.918 46.3975 192.899 46.2887 192.881 46.1799C192.799 46.8425 192.782 47.5114 192.83 48.1773C192.89 49.0259 193.136 49.851 193.551 50.5946C193.896 51.3015 194.484 51.8613 195.208 52.1719C195.72 52.3527 196.261 52.4397 196.804 52.4287H197.043C196.955 52.6614 196.871 52.8941 196.792 53.1298C196.117 55.1266 195.775 57.22 195.777 59.3272C195.777 69.903 204.238 78.4724 214.682 78.4724C215.939 78.4663 217.193 78.3347 218.423 78.0796C218.832 78.2095 219.241 78.3425 219.635 78.4845C220.441 78.7503 221.232 79.061 222.004 79.4151C222.331 79.5693 223.655 80.3398 225.254 81.3339L225.145 81.5605C223.585 83.0143 222.44 84.8559 221.828 86.8965C221.217 88.9371 221.16 91.1032 221.665 93.1728C222.822 97.666 226.617 101.519 226.236 106.145C226.181 106.803 226.042 107.471 226.154 108.124C226.308 109.03 226.923 109.768 227.538 110.439C228.071 111.025 228.626 111.593 229.189 112.149C229.144 115.101 228.886 118.05 228.608 120.993C228.583 121.25 228.577 121.51 228.574 121.773C228.591 123.045 229.054 124.272 229.883 125.239C230.761 126.305 231.113 127.904 230.946 129.33C230.707 131.373 229.698 133.225 229.023 135.162C225.975 143.873 229.719 153.697 227.611 162.692C227.093 164.907 226.221 167.061 226.096 169.34C226.027 170.763 226.251 172.256 225.703 173.57C225.227 174.712 224.236 175.537 223.3 176.338C221.978 177.468 220.689 178.636 219.435 179.843C217.54 178.809 215.583 177.891 213.577 177.093C213.249 176.962 212.916 176.847 212.577 176.749C210.208 174.537 207.221 173.123 204.416 171.497C202.09 170.152 199.873 168.642 197.643 167.131C195.523 165.68 193.357 164.218 191.563 162.354C190.655 161.411 189.846 160.371 188.867 159.51C188.008 158.796 187.096 158.146 186.141 157.564C181.843 154.787 177.746 151.712 173.879 148.363C170.932 145.813 168.52 142.529 165.37 140.241C163.44 138.839 161.196 137.561 158.833 137.824C158.081 137.912 157.351 138.136 156.679 138.486C156.053 138.221 155.384 138.071 154.704 138.044C152.784 137.984 151.021 139.023 149.373 140.024C139.679 145.9 129.834 151.514 119.838 156.866C117.821 157.948 115.791 159.021 113.865 160.26C110.105 162.685 106.775 165.714 104.008 169.225C103.499 169.868 102.856 170.6 102.048 170.503C101.826 170.469 101.613 170.393 101.421 170.279C100.176 169.606 99.4122 168.303 98.6943 167.067C98.1733 166.161 97.6099 165.215 96.8465 164.526C96.6831 164.097 96.4653 163.691 96.1983 163.318C97.2736 160.671 98.2006 157.96 99.0609 155.232C99.5092 153.799 99.9424 152.358 100.515 150.968C101.926 147.529 104.177 144.414 104.974 140.776C105.165 139.897 105.277 138.993 105.425 138.105C114.134 136.395 120.708 128.635 120.708 119.316C120.708 108.74 112.244 100.171 101.802 100.171C91.3606 100.171 82.9001 108.74 82.9001 119.316C82.8907 122.535 83.6932 125.705 85.2336 128.533C86.774 131.362 89.0028 133.759 91.715 135.503C91.715 135.539 91.715 135.576 91.715 135.609C91.6969 136.217 91.6372 136.822 91.5363 137.422C91.188 139.446 90.3246 141.35 89.4553 143.196C88.8797 144.432 88.3042 145.674 87.7074 146.907C87.4211 146.85 87.1432 146.756 86.8804 146.629C86.3685 146.345 86.1443 145.722 85.9505 145.172C85.0926 142.653 84.0424 140.202 82.8092 137.842C82.3282 136.839 81.7171 135.903 80.9917 135.059C79.7134 133.663 77.9625 132.835 76.2692 131.998C75.9662 131.853 75.6845 131.696 75.3937 131.557C75.1422 131.37 74.8791 131.2 74.6061 131.046C73.1976 130.252 71.6345 129.68 70.4592 128.568C69.5777 127.734 68.9718 126.65 68.1479 125.764C66.7757 124.293 64.8824 123.453 63.0437 122.652C62.0865 122.235 61.0808 121.809 60.0357 121.866C59.8884 121.874 59.7417 121.89 59.5965 121.915C59.3451 121.958 59.0964 122.014 58.8513 122.084C58.6127 121.958 58.3875 121.808 58.1788 121.637C57.055 120.773 56.6188 119.289 56.2522 117.908C55.6464 115.599 55.0072 113.209 55.3828 110.846C55.4482 110.439 55.5372 110.035 55.6494 109.638C55.7433 109.484 55.8342 109.336 55.916 109.169C58.3277 108.446 60.5312 107.159 62.343 105.414C64.1548 103.669 65.5224 101.518 66.3318 99.1394C67.1412 96.7607 67.369 94.2234 66.9962 91.7391C66.6235 89.2547 65.6609 86.8952 64.1887 84.8572C64.0342 84.6456 63.8858 84.4402 63.7131 84.2347L63.8949 84.135C65.57 83.1137 65.9517 80.6722 65.1762 78.8531C64.4008 77.0341 62.7529 75.7499 61.0838 74.7406C60.8415 74.5926 60.5961 74.4536 60.3477 74.3146L60.1357 74.1998C59.9478 74.097 59.7631 73.9973 59.5752 73.8976L59.3541 73.7858C59.133 73.674 58.9119 73.5682 58.6907 73.4655L58.5908 73.4172C58.3151 73.2933 58.0394 73.1724 57.7608 73.0576C57.4912 72.9458 57.2216 72.8431 56.9489 72.7554L56.8369 72.7131C56.5794 72.6194 56.3189 72.5318 56.0583 72.4472L56.0008 72.4291C54.0954 71.8113 52.1091 71.4773 50.106 71.438C48.1451 71.4497 46.1908 71.6654 44.2748 72.0816C42.4093 72.4185 40.5826 72.9419 38.8222 73.6438C35.9128 74.8737 33.3478 76.7924 31.3492 79.2339C30.9279 79.2657 30.5103 79.3345 30.1011 79.4393C28.4623 79.8533 26.9871 80.7658 25.6391 81.7992C24.5101 82.6272 23.5098 83.6169 22.6705 84.7363C21.6821 86.1707 21.0005 87.7928 20.6682 89.5014C19.5202 94.8588 20.9318 100.379 21.9708 105.764C23.0098 111.149 23.6096 117.017 21.062 121.848C20.1018 123.661 18.7386 125.236 17.7299 127.015C16.7212 128.795 16.0214 130.943 16.603 132.917C17.3088 135.313 19.6322 136.821 20.8439 138.996C22.2616 141.531 21.8708 144.937 20.0169 147.155C19.9352 147.251 19.8534 147.348 19.7655 147.457C19.6777 147.566 19.5535 147.68 19.4384 147.783C21.3498 148.454 23.4793 147.732 25.1938 146.656C26.565 145.848 27.7279 144.732 28.5896 143.396C30.7555 139.848 29.7831 135.261 30.5464 131.161C31.5491 125.792 35.5961 121.002 35.0387 115.566C34.6631 111.919 32.2761 108.87 30.401 105.734C29.1546 103.629 28.11 101.411 27.281 99.1103C27.2476 99.0136 27.2143 98.9139 27.178 98.8082C26.6297 97.252 26.2086 95.6022 26.4903 93.9735C26.5864 93.446 26.7451 92.9317 26.9629 92.4415C26.9629 92.4989 26.9629 92.5594 26.9629 92.6168C26.9997 94.192 27.3509 95.7441 27.9959 97.1825C29.8891 101.111 34.445 102.924 37.3379 106.108C37.4591 106.241 37.5742 106.377 37.6893 106.516C37.7226 106.553 37.7529 106.592 37.7832 106.631L38.0286 106.933L38.1316 107.075C38.2073 107.181 38.283 107.287 38.3527 107.396L38.4466 107.532C38.5435 107.686 38.6405 107.834 38.7313 108C39.4674 107.187 40.2278 106.332 40.5246 105.281C40.5519 105.19 40.5701 105.096 40.5882 105.003C40.6125 105.027 40.6337 105.054 40.6579 105.081C40.7155 105.404 40.7609 105.728 40.8033 106.054C40.8033 106.52 40.853 106.985 40.9517 107.441C41.182 110.342 40.9972 113.321 40.8033 116.231C40.7003 117.787 41.1062 120.099 40.1126 121.259L40.0824 121.292C40.0241 121.36 39.9603 121.423 39.8915 121.48C39.7219 121.655 39.5492 121.827 39.3887 122.008C36.0566 125.755 34.542 131.073 34.6207 136.168C34.6995 141.966 36.5564 147.584 38.6617 152.977C39.3969 154.947 40.2632 156.865 41.2547 158.719C41.7665 159.72 42.4433 160.628 43.257 161.405C44.1082 162.157 45.1441 162.653 46.165 163.136C46.4194 163.257 46.6769 163.375 46.9314 163.499L47.5827 163.801L52.5415 166.152C53.4502 167.484 54.3287 168.853 55.2162 170.225C55.3435 170.418 55.4677 170.618 55.5979 170.811C56.5673 172.322 57.5427 173.833 58.5362 175.301L66.8938 187.648C67.4996 188.554 68.1327 189.461 68.9839 190.132C69.2261 190.322 69.4881 190.485 69.7655 190.618C69.9063 190.686 70.0509 190.745 70.1986 190.796C70.0152 191.071 69.9367 191.403 69.9775 191.73C70.0892 192.051 70.3017 192.328 70.5834 192.519C72.4736 194.078 74.5728 195.722 75.1665 198.118C75.5876 199.825 75.1665 201.653 75.5452 203.37C76.2389 206.464 79.3074 208.34 82.2094 209.531C88.7131 212.196 95.9378 213.22 102.847 211.981C109.757 210.742 116.321 207.168 120.795 201.708C122.171 200.022 123.343 198.181 124.648 196.441C125.557 195.214 126.557 194.045 127.59 192.918C128.704 192.409 129.779 191.817 130.804 191.147C132.988 189.7 134.869 187.841 136.862 186.119C138.35 184.826 139.907 183.605 141.273 182.191C142.499 180.849 143.645 179.437 144.705 177.96C147.128 174.758 149.631 171.618 152.214 168.542C153.596 166.895 155.059 165.218 156.988 164.312L157.076 164.275C157.306 165.629 158.382 166.777 159.136 167.947C162.256 172.781 165.521 177.758 170.344 180.84C172.985 182.526 175.972 183.56 178.953 184.502C186.526 186.889 194.22 188.763 201.92 190.639C202.175 190.156 202.423 189.709 202.702 189.274C202.821 189.399 202.932 189.533 203.035 189.672C203.068 189.721 203.096 189.772 203.129 189.82C203.073 189.831 203.019 189.846 202.965 189.866C202.471 190.095 202.082 190.504 201.878 191.008C201.048 192.667 200.969 194.592 200.93 196.447C200.903 198.26 200.93 200.073 200.93 201.886C200.886 202.563 200.989 203.241 201.233 203.874C201.82 205.083 203.314 205.533 204.65 205.687C206.97 205.944 209.309 205.726 211.617 205.415C211.75 205.958 211.968 206.477 212.262 206.953C213.558 209.068 215.797 210.464 218.127 211.283C220.456 212.102 222.925 212.428 225.345 212.909C229.644 213.761 234.042 215.124 238.316 214.163C240.022 213.779 241.648 213.036 243.354 212.71C247.258 211.972 251.305 213.465 255.237 212.867C257.137 212.564 258.933 211.809 260.653 210.942C261.521 210.562 262.307 210.021 262.971 209.346C263.601 208.639 263.98 207.636 263.719 206.721C263.571 206.195 263.231 205.748 263.004 205.252C262.7 204.459 262.527 203.622 262.492 202.774C262.176 199.565 261.631 196.382 260.862 193.25C260.841 193.162 260.817 193.072 260.793 192.981C263.764 191.806 266.427 189.959 269.056 188.122L274.712 184.176C276.529 182.898 278.392 181.614 280.434 180.719C283.566 179.347 287.035 178.955 290.449 178.958C291.845 178.958 293.245 179.027 294.635 179.154C294.458 179.347 294.324 179.576 294.244 179.825C293.966 180.689 294.408 181.638 295.065 182.269C295.722 182.901 296.58 183.257 297.352 183.696C299.486 184.894 301.264 186.637 302.502 188.745C303.277 190.071 303.841 191.682 303.35 193.141C302.744 194.972 300.584 196.235 300.709 198.163C300.781 199.299 301.699 200.239 302.744 200.659C303.789 201.079 304.949 201.073 306.076 201.04C307.921 200.982 309.82 200.84 311.471 200.003C312.583 199.438 313.525 198.586 314.449 197.743C315.291 196.973 316.151 196.172 316.63 195.133C317.078 194.154 317.148 193.045 317.169 191.969C317.26 186.905 316.385 181.771 317.393 176.809C317.696 175.298 318.181 173.821 318.438 172.298C318.844 169.881 318.69 167.439 318.535 165.01C318.46 163.813 318.369 162.58 317.781 161.544Z" fill="url(#paint0_linear)"/>
<path opacity="0.06" d="M253.78 91.5048C252.59 92.3056 252.175 93.8526 252.023 95.2789C251.378 101.343 253.886 107.347 253.72 113.442C253.586 118.292 251.775 122.918 249.988 127.429C246.94 135.125 245.353 143.483 244.738 151.736C244.123 159.988 243.223 168.581 238.783 175.561C237.774 177.142 236.599 178.61 235.611 180.2C234.575 181.861 233.754 183.644 232.839 185.373C230.144 190.477 226.669 195.133 222.54 199.173C221.328 200.351 220.044 201.493 218.499 202.173C217.504 202.604 216.432 202.832 215.346 202.843C214.261 202.855 213.185 202.649 212.18 202.239C210.108 201.384 208.363 199.457 208.279 197.221C208.203 195.22 209.399 193.416 210.599 191.815C214.665 186.389 219.34 181.446 224.533 177.081C225.475 176.289 226.469 175.471 226.957 174.341C227.505 173.038 227.281 171.561 227.35 170.149C227.462 167.898 228.341 165.762 228.865 163.568C230.985 154.657 227.217 144.928 230.283 136.295C230.964 134.376 231.976 132.542 232.215 130.52C232.385 129.106 232.034 127.526 231.146 126.465C230.315 125.512 229.85 124.296 229.834 123.033C229.834 122.773 229.834 122.516 229.865 122.262C230.234 118.307 230.601 114.333 230.401 110.366C230.201 106.399 229.41 102.41 227.575 98.8837C226.623 97.0556 225.394 95.3453 224.806 93.3722C223.861 90.1783 224.733 86.7246 226.142 83.7029C227.241 81.34 228.708 79.0888 230.755 77.4692C234.56 74.4627 240.255 74.1152 244.42 76.602C247.492 78.4331 249.594 81.5122 251.299 84.6517C252.523 86.9451 253.798 88.8881 253.78 91.5048Z" fill="black"/>
<path d="M243.684 67.4221C243.102 68.9874 242.524 70.5526 241.948 72.1178C241.566 73.1452 241.188 74.1816 240.794 75.209C238.976 79.9439 236.944 84.6033 233.763 88.5224C234.239 87.9362 229.765 84.987 226.466 82.9746C224.857 81.9865 223.525 81.2251 223.197 81.074C222.42 80.7236 221.624 80.4149 220.813 80.1494C219.556 79.7263 218.284 79.3607 217.027 78.9044C214.119 77.8559 216.151 76.2816 217.396 74.5895C221.471 69.0478 222.243 61.4755 226.869 56.384C228.565 59.5991 231.249 62.188 234.527 63.772C234.59 63.8052 234.657 63.8354 234.723 63.8626C237.471 65.1438 240.506 65.6968 243.348 66.7695C243.502 66.8269 243.681 66.9085 243.732 67.0716C243.752 67.1907 243.735 67.3127 243.684 67.4221Z" fill="#A1616A"/>
<path d="M235.775 179.351C234.459 181.231 233.64 183.412 233.393 185.693C233.147 187.973 233.482 190.278 234.366 192.395C234.59 192.987 234.938 193.523 235.387 193.969C235.959 194.415 236.625 194.725 237.335 194.876C243.351 196.583 249.773 196.248 255.934 195.178C258.021 194.858 260.072 194.336 262.059 193.622C265.109 192.458 267.833 190.6 270.523 188.745L276.211 184.835C278.053 183.569 279.91 182.297 281.967 181.408C285.117 180.052 288.607 179.662 292.039 179.665C294.987 179.668 297.928 179.949 300.824 180.502C302.753 180.873 305.065 181.257 306.422 179.852C307.197 179.057 307.427 177.894 307.579 176.797C308.178 172.53 308.167 168.199 307.545 163.934C307.53 163.575 307.4 163.231 307.173 162.952C306.959 162.771 306.699 162.653 306.422 162.611C303.741 162.006 301.051 163.26 298.446 164.121C293.033 165.916 287.22 166.131 281.712 167.608C275.933 169.158 270.504 172.093 264.531 172.688C261.683 172.972 258.824 172.724 255.97 172.787C253.323 172.845 250.854 173.757 248.261 173.866C243.263 174.087 238.916 174.957 235.775 179.351Z" fill="#A1616A"/>
<path opacity="0.06" d="M235.775 179.351C234.459 181.231 233.64 183.412 233.393 185.693C233.147 187.973 233.482 190.278 234.366 192.395C234.59 192.987 234.938 193.523 235.387 193.969C235.959 194.415 236.625 194.725 237.335 194.876C243.351 196.583 249.773 196.248 255.934 195.178C258.021 194.858 260.072 194.336 262.059 193.622C265.109 192.458 267.833 190.6 270.523 188.745L276.211 184.835C278.053 183.569 279.91 182.297 281.967 181.408C285.117 180.052 288.607 179.662 292.039 179.665C294.987 179.668 297.928 179.949 300.824 180.502C302.753 180.873 305.065 181.257 306.422 179.852C307.197 179.057 307.427 177.894 307.579 176.797C308.178 172.53 308.167 168.199 307.545 163.934C307.53 163.575 307.4 163.231 307.173 162.952C306.959 162.771 306.699 162.653 306.422 162.611C303.741 162.006 301.051 163.26 298.446 164.121C293.033 165.916 287.22 166.131 281.712 167.608C275.933 169.158 270.504 172.093 264.531 172.688C261.683 172.972 258.824 172.724 255.97 172.787C253.323 172.845 250.854 173.757 248.261 173.866C243.263 174.087 238.916 174.957 235.775 179.351Z" fill="black"/>
<path d="M240.664 172.963C240.521 173.631 240.394 174.338 240.594 174.99C240.842 175.632 241.261 176.194 241.806 176.616C246.955 181.215 254.313 182.167 261.193 182.913C263.056 183.116 264.952 183.318 266.797 182.983C268.478 182.68 270.047 181.94 271.595 181.209C274.927 179.635 278.277 178.042 281.134 175.728C283.936 173.461 286.184 170.561 289.085 168.424C292.384 166.007 296.44 164.623 299.385 161.777C301.513 159.728 302.929 157.053 303.423 154.144C303.756 152.159 303.647 150.131 303.423 148.131C303.183 145.831 302.799 143.493 301.702 141.456C300.433 139.099 298.3 137.319 296.05 135.857C291.288 132.769 285.681 130.853 279.995 130.901C272.119 130.971 264.849 135.543 259.196 140.676C253.217 146.114 248.378 152.679 244.959 159.994C243.029 164.136 241.587 168.488 240.664 172.963Z" fill="#464353"/>
<path opacity="0.06" d="M240.664 172.963C240.521 173.631 240.394 174.338 240.594 174.99C240.842 175.632 241.261 176.194 241.806 176.616C246.955 181.215 254.313 182.167 261.193 182.913C263.056 183.116 264.952 183.318 266.797 182.983C268.478 182.68 270.047 181.94 271.595 181.209C274.927 179.635 278.277 178.042 281.134 175.728C283.936 173.461 286.184 170.561 289.085 168.424C292.384 166.007 296.44 164.623 299.385 161.777C301.513 159.728 302.929 157.053 303.423 154.144C303.756 152.159 303.647 150.131 303.423 148.131C303.183 145.831 302.799 143.493 301.702 141.456C300.433 139.099 298.3 137.319 296.05 135.857C291.288 132.769 285.681 130.853 279.995 130.901C272.119 130.971 264.849 135.543 259.196 140.676C253.217 146.114 248.378 152.679 244.959 159.994C243.029 164.136 241.587 168.488 240.664 172.963Z" fill="black"/>
<path d="M253.78 91.5048C252.59 92.3056 252.175 93.8526 252.023 95.2789C251.378 101.343 253.886 107.347 253.72 113.442C253.586 118.292 251.775 122.918 249.988 127.429C246.94 135.125 245.353 143.483 244.738 151.736C244.123 159.988 243.223 168.581 238.783 175.561C237.774 177.142 236.599 178.61 235.611 180.2C234.575 181.861 233.754 183.644 232.839 185.373C230.144 190.477 226.669 195.133 222.54 199.173C221.328 200.351 220.044 201.493 218.499 202.173C217.504 202.604 216.432 202.832 215.346 202.843C214.261 202.855 213.185 202.649 212.18 202.239C210.108 201.384 208.363 199.457 208.279 197.221C208.203 195.22 209.399 193.416 210.599 191.815C214.665 186.389 219.34 181.446 224.533 177.081C225.475 176.289 226.469 175.471 226.957 174.341C227.505 173.038 227.281 171.561 227.35 170.149C227.462 167.898 228.341 165.762 228.865 163.568C230.985 154.657 227.217 144.928 230.283 136.295C230.964 134.376 231.976 132.542 232.215 130.52C232.385 129.106 232.034 127.526 231.146 126.465C230.315 125.512 229.85 124.296 229.834 123.033C229.834 122.773 229.834 122.516 229.865 122.262C230.234 118.307 230.601 114.333 230.401 110.366C230.201 106.399 229.41 102.41 227.575 98.8837C226.623 97.0556 225.394 95.3453 224.806 93.3722C223.861 90.1783 224.733 86.7246 226.142 83.7029C227.241 81.34 228.708 79.0888 230.755 77.4692C234.56 74.4627 240.255 74.1152 244.42 76.602C247.492 78.4331 249.594 81.5122 251.299 84.6517C252.523 86.9451 253.798 88.8881 253.78 91.5048Z" fill="#A1616A"/>
<path d="M237.044 111.804C243.376 111.804 248.509 103.77 248.509 93.8587C248.509 83.9476 243.376 75.9131 237.044 75.9131C230.712 75.9131 225.578 83.9476 225.578 93.8587C225.578 103.77 230.712 111.804 237.044 111.804Z" fill="#A1616A"/>
<path d="M207.803 187.636C208.142 188.112 208.371 188.656 208.476 189.231C208.581 189.805 208.558 190.395 208.409 190.96C209.49 191.734 210.803 192.116 212.132 192.042C213.45 191.97 214.746 191.672 215.964 191.162C217.022 190.777 218.025 190.253 218.944 189.603C220.526 188.437 221.671 186.769 222.579 185.04C223.091 184.086 223.528 182.85 222.882 181.992C222.629 181.7 222.32 181.462 221.974 181.29C219.64 179.962 217.21 178.81 214.704 177.843C214.016 177.526 213.268 177.36 212.51 177.353C211.58 177.405 210.735 177.912 209.996 178.48C208.335 179.769 206.995 181.424 206.082 183.315C205.798 183.919 204.937 185.355 205.365 185.977C205.558 186.264 206.273 186.364 206.576 186.545C207.058 186.818 207.476 187.19 207.803 187.636Z" fill="#FBBEBE"/>
<path opacity="0.03" d="M207.803 187.636C208.142 188.112 208.371 188.656 208.476 189.231C208.581 189.805 208.558 190.395 208.409 190.96C209.49 191.734 210.803 192.116 212.132 192.042C213.45 191.97 214.746 191.672 215.964 191.162C217.022 190.777 218.025 190.253 218.944 189.603C220.526 188.437 221.671 186.769 222.579 185.04C223.091 184.086 223.528 182.85 222.882 181.992C222.629 181.7 222.32 181.462 221.974 181.29C219.64 179.962 217.21 178.81 214.704 177.843C214.016 177.526 213.268 177.36 212.51 177.353C211.58 177.405 210.735 177.912 209.996 178.48C208.335 179.769 206.995 181.424 206.082 183.315C205.798 183.919 204.937 185.355 205.365 185.977C205.558 186.264 206.273 186.364 206.576 186.545C207.058 186.818 207.476 187.19 207.803 187.636Z" fill="black"/>
<path d="M220.347 180.635C225.472 181.584 230.186 184.055 235.223 185.388C237.262 185.926 239.361 186.294 241.309 187.086C243.257 187.878 245.092 189.231 245.932 191.159C246.286 192.085 246.521 193.051 246.631 194.036C246.849 195.429 247.028 196.985 246.198 198.127C245.323 199.336 243.669 199.602 242.187 199.78C236.862 200.412 231.537 201.046 226.193 201.493C225.111 201.559 224.034 201.687 222.967 201.877C222.089 202.052 221.231 202.318 220.359 202.524C219.229 202.787 218.081 202.953 216.936 203.128C214.007 203.548 211.044 203.968 208.103 203.648C206.761 203.5 205.258 203.068 204.668 201.859C204.423 201.232 204.319 200.56 204.365 199.889C204.35 198.094 204.335 196.302 204.365 194.51C204.392 192.67 204.483 190.76 205.319 189.12C205.526 188.617 205.917 188.212 206.413 187.986C206.717 187.899 207.036 187.871 207.352 187.902C208.927 187.956 210.557 188.023 211.965 188.724C213.083 189.277 213.992 190.198 215.131 190.7C217.287 191.655 219.89 190.969 222.074 191.866C222.582 190.301 222.467 188.718 222.089 187.113C221.71 185.509 221.18 183.934 221.019 182.297C221.013 181.937 220.943 181.581 220.813 181.245C220.65 180.91 220.704 180.583 220.347 180.635Z" fill="#464353"/>
<path opacity="0.06" d="M220.347 180.635C225.472 181.584 230.186 184.055 235.223 185.388C237.262 185.926 239.361 186.294 241.309 187.086C243.257 187.878 245.092 189.231 245.932 191.159C246.286 192.085 246.521 193.051 246.631 194.036C246.849 195.429 247.028 196.985 246.198 198.127C245.323 199.336 243.669 199.602 242.187 199.78C236.862 200.412 231.537 201.046 226.193 201.493C225.111 201.559 224.034 201.687 222.967 201.877C222.089 202.052 221.231 202.318 220.359 202.524C219.229 202.787 218.081 202.953 216.936 203.128C214.007 203.548 211.044 203.968 208.103 203.648C206.761 203.5 205.258 203.068 204.668 201.859C204.423 201.232 204.319 200.56 204.365 199.889C204.35 198.094 204.335 196.302 204.365 194.51C204.392 192.67 204.483 190.76 205.319 189.12C205.526 188.617 205.917 188.212 206.413 187.986C206.717 187.899 207.036 187.871 207.352 187.902C208.927 187.956 210.557 188.023 211.965 188.724C213.083 189.277 213.992 190.198 215.131 190.7C217.287 191.655 219.89 190.969 222.074 191.866C222.582 190.301 222.467 188.718 222.089 187.113C221.71 185.509 221.18 183.934 221.019 182.297C221.013 181.937 220.943 181.581 220.813 181.245C220.65 180.91 220.704 180.583 220.347 180.635Z" fill="black"/>
<path d="M49.1336 129.112C48.1006 128.786 47.104 129.699 46.5255 130.623C44.1203 134.394 44.3172 139.428 46.2407 143.465C46.6984 144.489 47.3296 145.426 48.1067 146.236C49.1487 147.26 50.4907 147.916 51.7417 148.653C55.2131 150.699 58.1881 153.485 60.4537 156.812C61.935 158.991 63.1012 161.387 64.7824 163.414C68.9203 168.406 75.7209 170.666 79.7346 175.743C80.6948 176.951 81.5066 178.353 82.788 179.233C83.5497 179.755 84.4374 180.065 85.3594 180.131C86.2814 180.197 87.2043 180.016 88.0328 179.607C88.8612 179.198 89.5652 178.575 90.0719 177.804C90.5787 177.033 90.8698 176.141 90.9153 175.22C92.4754 172.933 93.7507 170.406 94.9654 167.917C96.7626 164.116 98.2812 160.191 99.5092 156.171C99.9605 154.751 100.397 153.322 100.972 151.941C102.393 148.533 104.656 145.448 105.455 141.846C105.777 140.401 105.855 138.9 106.322 137.498C106.74 136.239 107.454 135.099 108.406 134.174C111.556 131.119 113.253 126.668 115.758 123.072C116.776 121.619 117.833 120.168 118.505 118.525C119.178 116.881 119.435 114.998 118.808 113.336C118.181 111.674 116.542 110.333 114.767 110.426C113.973 110.509 113.202 110.745 112.498 111.121C110.052 112.279 107.808 113.822 105.852 115.69C104.997 116.511 104.188 117.379 103.429 118.289C99.7273 122.7 96.8313 128.055 96.5769 133.802C96.4921 135.772 96.6496 137.957 95.3955 139.483C91.9362 143.698 90.8244 149.494 87.874 154.08C86.5078 156.196 84.9417 158.386 82.6062 159.35C82.2613 159.516 81.8797 159.591 81.4976 159.568C80.5646 159.462 80.0284 158.483 79.6346 157.631C78.0957 154.307 76.3148 151.101 74.3062 148.037C73.5126 146.828 72.6371 145.59 71.3679 144.879C70.5016 144.399 69.4959 144.184 68.681 143.622C67.5451 142.84 66.9513 141.507 66.3606 140.259C64.4462 136.229 62.0223 132.459 59.1481 129.043C57.8335 127.481 56.1008 125.867 54.0712 126.1C52.1386 126.326 50.9572 128.354 49.1336 129.112Z" fill="#FBBEBE"/>
<path opacity="0.03" d="M49.1336 129.112C48.1006 128.786 47.104 129.699 46.5255 130.623C44.1203 134.394 44.3172 139.428 46.2407 143.465C46.6984 144.489 47.3296 145.426 48.1067 146.236C49.1487 147.26 50.4907 147.916 51.7417 148.653C55.2131 150.699 58.1881 153.485 60.4537 156.812C61.935 158.991 63.1012 161.387 64.7824 163.414C68.9203 168.406 75.7209 170.666 79.7346 175.743C80.6948 176.951 81.5066 178.353 82.788 179.233C83.5497 179.755 84.4374 180.065 85.3594 180.131C86.2814 180.197 87.2043 180.016 88.0328 179.607C88.8612 179.198 89.5652 178.575 90.0719 177.804C90.5787 177.033 90.8698 176.141 90.9153 175.22C92.4754 172.933 93.7507 170.406 94.9654 167.917C96.7626 164.116 98.2812 160.191 99.5092 156.171C99.9605 154.751 100.397 153.322 100.972 151.941C102.393 148.533 104.656 145.448 105.455 141.846C105.777 140.401 105.855 138.9 106.322 137.498C106.74 136.239 107.454 135.099 108.406 134.174C111.556 131.119 113.253 126.668 115.758 123.072C116.776 121.619 117.833 120.168 118.505 118.525C119.178 116.881 119.435 114.998 118.808 113.336C118.181 111.674 116.542 110.333 114.767 110.426C113.973 110.509 113.202 110.745 112.498 111.121C110.052 112.279 107.808 113.822 105.852 115.69C104.997 116.511 104.188 117.379 103.429 118.289C99.7273 122.7 96.8313 128.055 96.5769 133.802C96.4921 135.772 96.6496 137.957 95.3955 139.483C91.9362 143.698 90.8244 149.494 87.874 154.08C86.5078 156.196 84.9417 158.386 82.6062 159.35C82.2613 159.516 81.8797 159.591 81.4976 159.568C80.5646 159.462 80.0284 158.483 79.6346 157.631C78.0957 154.307 76.3148 151.101 74.3062 148.037C73.5126 146.828 72.6371 145.59 71.3679 144.879C70.5016 144.399 69.4959 144.184 68.681 143.622C67.5451 142.84 66.9513 141.507 66.3606 140.259C64.4462 136.229 62.0223 132.459 59.1481 129.043C57.8335 127.481 56.1008 125.867 54.0712 126.1C52.1386 126.326 50.9572 128.354 49.1336 129.112Z" fill="black"/>
<path d="M48.9215 114.675C53.3315 114.675 56.9065 111.457 56.9065 107.486C56.9065 103.516 53.3315 100.298 48.9215 100.298C44.5116 100.298 40.9366 103.516 40.9366 107.486C40.9366 111.457 44.5116 114.675 48.9215 114.675Z" fill="#FBBEBE"/>
<path d="M56.4097 108.876C57.9974 108.876 59.2845 107.592 59.2845 106.009C59.2845 104.425 57.9974 103.141 56.4097 103.141C54.8221 103.141 53.535 104.425 53.535 106.009C53.535 107.592 54.8221 108.876 56.4097 108.876Z" fill="#FBBEBE"/>
<path d="M49.9696 107.486C56.0442 107.486 60.9687 106.173 60.9687 104.552C60.9687 102.932 56.0442 101.618 49.9696 101.618C43.8951 101.618 38.9706 102.932 38.9706 104.552C38.9706 106.173 43.8951 107.486 49.9696 107.486Z" fill="#FBBEBE"/>
<path d="M40.1611 103.927C40.4287 104.773 40.6392 105.636 40.7912 106.51C39.8677 105.575 39.0676 104.526 38.4102 103.389C38.2331 103.193 38.0907 102.968 37.9892 102.724C37.0077 100.446 36.3383 98.1404 36.3383 95.6445C36.338 92.7506 37.149 89.9142 38.6795 87.4558C40.2101 84.9974 42.3992 83.0149 44.9998 81.7321C47.6003 80.4493 50.5086 79.9173 53.3962 80.1963C56.2838 80.4753 59.0357 81.5542 61.3411 83.311C63.6464 85.0678 65.4134 87.4326 66.4425 90.1383C67.4716 92.844 67.7218 95.7829 67.1648 98.6229C66.6077 101.463 65.2658 104.091 63.2903 106.211C61.3149 108.33 58.7848 109.856 55.9857 110.617C56.4612 109.088 57.1125 107.595 57.1973 106.009C57.2484 105.48 57.1716 104.946 56.9732 104.453C56.7073 103.928 56.3149 103.477 55.8312 103.141C54.0985 101.821 51.869 101.244 49.688 101.28C47.5044 101.37 45.3593 101.883 43.3721 102.791C42.745 103.06 41.9938 103.422 41.2516 103.67C40.8978 103.792 40.5324 103.878 40.1611 103.927Z" fill="#FBBEBE"/>
<path d="M79.6164 137.884C78.6198 139.477 76.4903 139.963 74.6182 139.821C71.1286 139.564 67.954 137.706 65.258 135.47C62.562 133.234 60.2053 130.635 57.4487 128.484C52.3203 124.474 46.5436 122.864 40.0187 122.77C41.294 121.715 40.8245 119.214 40.9275 117.57C41.1517 114.246 41.3637 110.834 40.9275 107.559C40.8821 107.205 40.8306 106.858 40.77 106.51C40.873 106.619 40.982 106.725 41.0941 106.834C43.0345 108.691 45.4239 110.016 48.0298 110.679C50.6357 111.342 53.3693 111.321 55.9644 110.617C55.7975 111.143 55.667 111.68 55.5737 112.224C55.1981 114.56 55.8281 116.929 56.4491 119.217C56.8187 120.585 57.2579 122.054 58.3878 122.909C59.1209 123.465 60.0448 123.683 60.9142 123.976C62.6471 124.565 64.2467 125.489 65.6215 126.695C66.5788 127.532 67.439 128.508 68.4659 129.236C69.4425 129.853 70.4713 130.382 71.5406 130.82C74.1648 132.028 76.6442 133.527 78.9318 135.289C79.3636 135.558 79.6995 135.955 79.8921 136.425C79.9487 136.674 79.9534 136.932 79.906 137.183C79.8585 137.434 79.76 137.673 79.6164 137.884Z" fill="#FBBEBE"/>
<path d="M97.5099 167.161C97.3009 168.539 96.0347 169.615 95.1411 170.684C92.7117 173.609 90.2489 176.543 87.5317 179.221C84.6237 182.082 81.4309 184.632 78.2412 187.183L74.1033 190.485C73.5928 190.951 72.9945 191.31 72.3433 191.543C71.5805 191.733 70.7744 191.637 70.0775 191.274C69.7999 191.141 69.537 190.98 69.2929 190.794C68.4357 190.129 67.8056 189.222 67.1907 188.331C64.3917 184.256 61.5897 180.179 58.7846 176.102C57.785 174.646 56.8035 173.15 55.8281 171.654C55.6979 171.461 55.5737 171.265 55.4434 171.071C54.5528 169.711 53.6653 168.352 52.7535 167.037L47.7674 164.708L47.1131 164.405L46.3407 164.046C45.3138 163.565 44.2717 163.076 43.4175 162.333C42.5995 161.566 41.9183 160.665 41.4031 159.67C40.4054 157.831 39.533 155.926 38.7919 153.969C36.6715 148.629 34.8055 143.063 34.7267 137.316C34.6571 132.261 36.1535 127.003 39.522 123.293C39.9824 122.782 40.4773 122.304 41.0032 121.86C41.6515 121.32 42.3209 121.002 43.154 121.12C43.987 121.238 44.7776 121.359 45.5773 121.495C47.7826 121.874 49.9707 122.337 52.1416 122.885C54.0985 123.383 56.125 123.951 58.1031 123.556C58.4211 123.492 58.7362 123.402 59.0512 123.32C59.3087 123.253 59.5631 123.19 59.8267 123.148C59.973 123.123 60.1207 123.106 60.2689 123.099C61.3201 123.045 62.3288 123.465 63.2981 123.879C65.149 124.671 67.0543 125.505 68.4478 126.961C69.2778 127.837 69.8866 128.913 70.7712 129.738C71.9526 130.841 73.5277 131.406 74.9454 132.195C75.2193 132.346 75.4833 132.515 75.736 132.699C76.2951 133.117 76.8034 133.599 77.2506 134.134C79.0863 136.295 80.1768 139.211 82.2034 141.359C83.8252 143.076 85.2347 144.98 86.4018 147.031C86.5927 147.372 86.7775 147.717 86.9592 148.067C87.2621 148.651 87.5438 149.243 87.8044 149.841C87.871 149.995 87.9376 150.143 87.9982 150.303C88.3794 151.209 88.7121 152.134 88.9948 153.074C89.6825 155.356 90.1399 157.818 91.6666 159.649C92.7329 160.921 94.2111 161.765 95.4561 162.861C96.2579 163.539 96.8888 164.395 97.2979 165.36C97.5227 165.932 97.5957 166.553 97.5099 167.161Z" fill="#FBBEBE"/>
<path opacity="0.06" d="M89.0766 149.013C88.7293 149.45 88.3728 149.881 88.0073 150.306C87.9467 150.385 87.8801 150.461 87.8134 150.536C84.6248 154.257 80.9746 157.558 76.9507 160.359C74.4607 162.094 71.8344 163.632 69.2142 165.167L64.3675 167.998C62.3409 169.186 60.2871 170.382 58.0395 171.065C57.3185 171.28 56.5642 171.452 55.8281 171.654C55.6979 171.461 55.5737 171.265 55.4434 171.071C54.5529 169.711 53.6653 168.352 52.7535 167.037L47.7675 164.708C50.521 162.971 52.964 160.788 54.9951 158.247C58.0243 154.522 60.3538 150.273 62.6499 146.052C63.057 145.37 63.3736 144.639 63.592 143.876C63.8949 142.61 63.6404 141.281 63.2679 140.036C61.904 135.572 59.0361 131.716 55.1496 129.119C52.4233 127.306 49.3214 126.203 46.2377 125.139C44.0839 124.396 41.7242 123.677 39.5341 123.982C39.9938 123.471 40.4887 122.994 41.0154 122.552C41.6636 122.009 42.3331 121.691 43.1661 121.809C43.9991 121.927 44.7897 122.048 45.5895 122.187C47.2101 122.682 48.8034 123.275 50.3877 123.885C51.4299 124.266 52.4424 124.724 53.4169 125.254C54.3869 125.845 55.3187 126.495 56.2068 127.203C58.8334 129.2 61.5989 131.008 64.4826 132.615C67.8147 134.449 71.3134 135.938 74.8091 137.449C75.1798 137.639 75.589 137.743 76.0056 137.751C76.2143 137.751 76.417 137.681 76.5815 137.553C76.7461 137.425 76.8632 137.246 76.9144 137.044C76.9282 136.824 76.8777 136.605 76.769 136.413C76.1632 135.177 74.7879 134.554 73.5429 133.953C68.3751 131.457 63.8313 127.865 59.336 124.299C59.2268 124.213 59.1308 124.111 59.0512 123.997L59.8267 123.825C64.8575 127.429 70.1707 130.624 75.7148 133.379C76.0077 133.528 76.3015 133.673 76.5963 133.814C76.8084 133.92 77.0174 134.023 77.2325 134.116C78.7259 134.848 80.2192 135.627 81.3431 136.836C82.0679 137.67 82.679 138.595 83.1606 139.589C84.3987 141.922 85.456 144.346 86.3231 146.841C86.3396 146.894 86.3588 146.946 86.3806 146.998C86.4905 147.379 86.6806 147.732 86.938 148.034C87.0287 148.135 87.1363 148.22 87.2561 148.285C87.8256 148.62 88.6071 148.584 89.0766 149.013Z" fill="black"/>
<path d="M59.8388 123.148C64.869 126.752 70.1822 129.946 75.7269 132.699L76.6084 133.137C78.3048 133.965 80.0708 134.787 81.3582 136.159C82.0824 136.994 82.6934 137.921 83.1757 138.915C84.4147 141.247 85.471 143.672 86.3352 146.167C86.5291 146.72 86.7563 147.327 87.2712 147.611C87.7862 147.895 88.6041 147.874 89.0615 148.303C88.6495 148.817 88.2315 149.324 87.7983 149.814C84.6105 153.536 80.9602 156.838 76.9356 159.64C74.4456 161.375 71.8193 162.913 69.199 164.448L64.3523 167.279C62.3258 168.464 60.272 169.66 58.0243 170.343C57.1792 170.6 56.2856 170.793 55.4283 171.041C54.5377 169.681 53.6501 168.322 52.7384 167.007L47.098 164.372C50.1272 162.662 52.7687 160.23 54.9739 157.525C58.0031 153.802 60.3326 149.554 62.6287 145.333C63.0352 144.651 63.3519 143.92 63.5708 143.157C63.8737 141.891 63.6192 140.559 63.2466 139.314C61.882 134.864 59.0226 131.02 55.1496 128.427C52.4233 126.614 49.3214 125.514 46.2377 124.447C44.0839 123.707 41.7242 122.985 39.5341 123.293C39.9945 122.782 40.4894 122.304 41.0154 121.86C41.6636 121.32 42.3331 121.002 43.1661 121.12C43.9991 121.238 44.7897 121.359 45.5895 121.495C47.2101 121.993 48.8034 122.586 50.3877 123.196C51.4304 123.576 52.443 124.033 53.4169 124.565C54.3869 125.156 55.3187 125.807 56.2068 126.514C58.8377 128.506 61.6073 130.31 64.4947 131.911C67.8268 133.748 71.3255 135.249 74.8212 136.745C75.1918 136.935 75.6011 137.039 76.0177 137.047C76.2267 137.048 76.4299 136.979 76.5947 136.851C76.7594 136.722 76.8763 136.543 76.9265 136.34C76.9401 136.121 76.8896 135.903 76.7811 135.712C76.1753 134.476 74.8 133.85 73.555 133.252C68.3872 130.756 63.8434 127.16 59.3481 123.583C59.238 123.497 59.1419 123.396 59.0633 123.281L59.8388 123.148Z" fill="#CF8349"/>
<path d="M102.281 139.552C112.782 139.552 121.295 131.06 121.295 120.585C121.295 110.11 112.782 101.618 102.281 101.618C91.7796 101.618 83.2666 110.11 83.2666 120.585C83.2666 131.06 91.7796 139.552 102.281 139.552Z" fill="#CF8349"/>
<path d="M121.186 196.072C124.745 194.957 128.359 193.821 131.485 191.782C133.682 190.349 135.575 188.506 137.568 186.802C139.067 185.521 140.631 184.312 142.006 182.898C143.238 181.575 144.391 180.18 145.459 178.722C147.891 175.547 150.402 172.433 152.993 169.379C154.383 167.75 155.852 166.092 157.794 165.185C161.244 163.568 165.294 164.659 168.935 165.768C174.388 167.43 179.813 169.192 184.914 171.721C187.816 173.162 190.627 174.77 193.557 176.151C198.912 178.674 204.598 180.405 210.263 182.127C210.684 182.306 211.151 182.344 211.596 182.236C211.913 182.091 212.186 181.864 212.386 181.578C213.125 180.667 213.717 179.648 214.14 178.556C214.221 178.432 214.251 178.282 214.224 178.136C214.198 177.991 214.117 177.861 213.998 177.773C211.574 175.419 208.43 173.972 205.492 172.295C203.153 170.962 200.915 169.467 198.679 167.971C196.531 166.536 194.365 165.085 192.563 163.239C191.654 162.305 190.836 161.275 189.852 160.423C188.982 159.713 188.061 159.069 187.095 158.495C182.777 155.745 178.656 152.698 174.76 149.379C171.798 146.853 169.372 143.598 166.206 141.332C164.264 139.942 162.005 138.676 159.63 138.93C156.74 139.232 154.607 141.649 152.593 143.734C145.823 150.748 137.28 155.767 129.725 161.934C123.558 166.962 117.793 172.936 110.281 175.589C110.617 176.701 110.735 177.813 111.075 178.912C111.497 180.441 112.025 181.94 112.653 183.397C113.276 184.687 113.977 185.938 114.752 187.143L117.763 192.048C118.369 193.045 119.002 194.057 119.868 194.849C120.323 195.284 121.186 195.441 121.186 196.072Z" fill="#464353"/>
<path opacity="0.06" d="M121.186 196.072C124.745 194.957 128.359 193.821 131.485 191.782C133.682 190.349 135.575 188.506 137.568 186.802C139.067 185.521 140.631 184.312 142.006 182.898C143.238 181.575 144.391 180.18 145.459 178.722C147.891 175.547 150.402 172.433 152.993 169.379C154.383 167.75 155.852 166.092 157.794 165.185C161.244 163.568 165.294 164.659 168.935 165.768C174.388 167.43 179.813 169.192 184.914 171.721C187.816 173.162 190.627 174.77 193.557 176.151C198.912 178.674 204.598 180.405 210.263 182.127C210.684 182.306 211.151 182.344 211.596 182.236C211.913 182.091 212.186 181.864 212.386 181.578C213.125 180.667 213.717 179.648 214.14 178.556C214.221 178.432 214.251 178.282 214.224 178.136C214.198 177.991 214.117 177.861 213.998 177.773C211.574 175.419 208.43 173.972 205.492 172.295C203.153 170.962 200.915 169.467 198.679 167.971C196.531 166.536 194.365 165.085 192.563 163.239C191.654 162.305 190.836 161.275 189.852 160.423C188.982 159.713 188.061 159.069 187.095 158.495C182.777 155.745 178.656 152.698 174.76 149.379C171.798 146.853 169.372 143.598 166.206 141.332C164.264 139.942 162.005 138.676 159.63 138.93C156.74 139.232 154.607 141.649 152.593 143.734C145.823 150.748 137.28 155.767 129.725 161.934C123.558 166.962 117.793 172.936 110.281 175.589C110.617 176.701 110.735 177.813 111.075 178.912C111.497 180.441 112.025 181.94 112.653 183.397C113.276 184.687 113.977 185.938 114.752 187.143L117.763 192.048C118.369 193.045 119.002 194.057 119.868 194.849C120.323 195.284 121.186 195.441 121.186 196.072Z" fill="black"/>
<path d="M204.113 190.316C204.452 190.792 204.681 191.337 204.786 191.911C204.89 192.485 204.868 193.075 204.719 193.64C205.796 194.416 207.107 194.801 208.433 194.731C209.754 194.658 211.053 194.362 212.274 193.854C213.332 193.468 214.335 192.944 215.255 192.295C216.839 191.129 217.981 189.461 218.905 187.73C219.417 186.778 219.853 185.542 219.193 184.684C218.941 184.391 218.631 184.153 218.284 183.983C215.955 182.656 213.53 181.503 211.029 180.535C210.341 180.219 209.594 180.052 208.836 180.042C207.903 180.094 207.058 180.605 206.319 181.173C204.659 182.462 203.32 184.116 202.408 186.007C202.123 186.612 201.263 188.05 201.687 188.672C201.881 188.959 202.596 189.059 202.899 189.237C203.375 189.508 203.789 189.876 204.113 190.316Z" fill="#FBBEBE"/>
<path d="M217.984 183.167C223.11 184.119 227.823 186.587 232.861 187.92C234.899 188.458 236.998 188.826 238.946 189.618C240.894 190.41 242.73 191.763 243.569 193.691C243.923 194.617 244.158 195.583 244.268 196.568C244.487 197.961 244.665 199.517 243.835 200.659C242.96 201.868 241.306 202.137 239.825 202.312C234.499 202.947 229.174 203.578 223.83 204.025C222.751 204.092 221.676 204.221 220.61 204.409C219.732 204.587 218.875 204.85 218.002 205.056C216.875 205.322 215.724 205.485 214.579 205.66C211.65 206.077 208.688 206.5 205.746 206.177C204.404 206.029 202.902 205.597 202.311 204.388C202.066 203.761 201.962 203.089 202.008 202.418C202.008 200.626 201.978 198.831 202.008 197.039C202.035 195.199 202.126 193.289 202.962 191.649C203.17 191.147 203.561 190.742 204.056 190.515C204.361 190.428 204.679 190.4 204.995 190.431C206.57 190.485 208.2 190.552 209.608 191.253C210.726 191.806 211.532 190.153 212.671 190.648C214.831 191.6 213.368 188.715 215.549 189.612C216.058 188.047 218.22 188.977 217.845 187.373C217.469 185.768 218.817 186.466 218.663 184.817C218.656 184.457 218.586 184.101 218.457 183.765C218.287 183.442 218.342 183.115 217.984 183.167Z" fill="#464353"/>
<path opacity="0.06" d="M64.4523 86.4888C63.2769 87.1717 61.8199 87.0448 60.4507 87.0146C59.2533 86.9899 58.0557 87.0515 56.8672 87.1989C56.4392 87.2287 56.0208 87.3394 55.6343 87.5252C55.131 87.849 54.7331 88.3121 54.4892 88.8578C54.0045 89.7866 53.6779 90.7894 53.5229 91.825C53.3533 92.9884 53.3715 94.2605 52.6445 95.1821C51.6539 96.4361 50.109 96.2427 48.7065 96.4905C47.4859 96.7241 46.316 97.1701 45.2502 97.8079C44.1993 98.4409 43.2975 99.2925 42.6065 100.305C41.9154 101.317 41.4512 102.466 41.2456 103.673C41.2062 103.948 41.1789 104.22 41.1668 104.495C41.1365 105.274 41.2153 106.069 41.1123 106.834C41.0874 107.024 41.0489 107.213 40.9972 107.399C40.9838 107.453 40.9666 107.507 40.9457 107.559C40.9003 107.205 40.8488 106.858 40.7882 106.51C39.8647 105.575 39.0645 104.526 38.4072 103.389C38.23 103.193 38.0876 102.968 37.9862 102.724C37.0047 100.446 36.3353 98.1403 36.3353 95.6444C36.335 92.3713 37.3725 89.1819 39.2993 86.5324C41.226 83.883 43.9434 81.9092 47.0627 80.8934C50.182 79.8775 53.5434 79.8717 56.6662 80.8767C59.789 81.8817 62.5132 83.846 64.4492 86.4888H64.4523Z" fill="black"/>
<path d="M65.4489 80.5424C64.6703 78.7445 63.0255 77.4693 61.3352 76.4692C58.0031 74.487 54.1681 73.242 50.2786 73.1907C48.3162 73.1912 46.3591 73.3937 44.4383 73.795C42.5666 74.1288 40.7329 74.648 38.9646 75.3451C36.0467 76.5556 33.4676 78.4553 31.4491 80.8808C31.0251 80.9129 30.6046 80.9806 30.192 81.0832C28.5441 81.4942 27.0598 82.3977 25.7058 83.422C24.5726 84.2408 23.5663 85.2212 22.719 86.3319C21.7273 87.7503 21.0414 89.3584 20.7046 91.0547C19.5504 96.3607 20.9711 101.836 22.0132 107.163C23.0552 112.49 23.6641 118.31 21.1044 123.096C20.1381 124.909 18.7659 126.45 17.7359 128.215C16.706 129.98 16.0214 132.104 16.6061 134.062C17.3028 136.443 19.6474 137.954 20.8712 140.096C21.6207 141.498 21.8882 143.106 21.6326 144.674C21.377 146.241 20.6125 147.682 19.4565 148.774C21.3801 149.439 23.5217 148.723 25.2544 147.659C26.6282 146.862 27.797 145.756 28.6683 144.429C30.8463 140.912 29.88 136.371 30.6373 132.306C31.646 126.988 35.7173 122.244 35.1569 116.86C34.7782 113.234 32.3791 110.227 30.4919 107.118C29.2331 105.044 28.1752 102.856 27.3324 100.582C26.7266 98.9594 26.2359 97.2159 26.5358 95.5117C26.635 94.9914 26.7946 94.4843 27.0114 94.0008C27.0114 94.0582 27.0114 94.1156 27.0114 94.1731C27.0459 95.7382 27.3983 97.2801 28.0473 98.7055C30.3011 103.298 36.3019 104.991 38.8434 109.429C39.5856 108.623 40.358 107.777 40.6609 106.725C40.9275 105.788 40.7912 104.791 40.8306 103.818C40.9366 101.099 42.5936 98.5363 44.9139 97.1343C45.9789 96.4954 47.1492 96.0503 48.3702 95.8199C49.7697 95.5691 51.3146 95.7594 52.3082 94.5054C53.0352 93.5989 53.017 92.3117 53.1897 91.1514C53.3432 90.1144 53.6699 89.1104 54.156 88.1811C54.399 87.6357 54.7971 87.1734 55.301 86.8516C55.688 86.6643 56.1077 86.5534 56.5369 86.5252C57.7244 86.3778 58.9211 86.3162 60.1175 86.3409C61.5018 86.3742 62.9831 86.498 64.1705 85.788C65.8426 84.7727 66.2274 82.3554 65.4489 80.5424Z" fill="#464353"/>
<path opacity="0.06" d="M234.723 63.8627C234.723 63.905 234.723 63.9442 234.723 63.9865C234.175 68.7003 229.631 68.4828 228.571 75.91C228.153 78.8199 223.724 79.3577 220.813 80.1403C219.556 79.7173 218.284 79.3517 217.027 78.8954C214.119 77.8469 216.151 76.2726 217.396 74.5805C221.471 69.0388 222.243 61.4665 226.869 56.375C228.565 59.59 231.249 62.179 234.527 63.7629C234.59 63.8053 234.657 63.8355 234.723 63.8627Z" fill="black"/>
<path d="M234.829 61.1583C234.829 61.8731 234.789 62.5873 234.708 63.2977C234.15 68.2037 231.697 72.6994 227.868 75.8293C224.04 78.9592 219.139 80.4765 214.207 80.0588C209.275 79.6411 204.7 77.3213 201.456 73.5925C198.211 69.8636 196.552 65.0196 196.831 60.09C197.11 55.1603 199.306 50.5335 202.951 47.1929C206.596 43.8523 211.403 42.0613 216.351 42.2004C221.299 42.3395 225.997 44.3978 229.448 47.9379C232.898 51.478 234.829 56.2208 234.829 61.1583Z" fill="#A1616A"/>
<path d="M242.478 63.2794C244.656 63.1737 246.749 64.0258 248.761 64.8628C256.737 68.1866 264.779 71.5376 271.907 76.4176C275.421 78.8349 278.677 81.5786 281.928 84.3313L295.283 95.6505C297.849 97.823 300.433 100.017 302.493 102.676C303.705 104.316 304.811 106.032 305.804 107.813L307.785 111.182C308.596 112.5 309.305 113.879 309.905 115.306C310.923 117.908 311.302 120.942 313.355 122.842C314.734 124.121 316.633 124.64 318.317 125.483C320.002 126.326 321.649 127.807 321.622 129.686C321.622 130.895 320.889 131.983 320.338 133.071C319.196 135.344 318.717 137.891 318.956 140.422L297.116 123.773C296.247 123.111 295.338 122.428 294.268 122.205C292.881 121.903 291.466 122.425 290.128 122.897C279.572 126.61 268.356 128.081 257.197 127.215C252.263 126.828 247.252 125.943 242.933 123.534C240.543 122.205 238.428 120.443 236.329 118.7C233.709 116.512 231.079 114.318 228.756 111.816C228.15 111.149 227.52 110.414 227.366 109.52C227.25 108.873 227.393 108.215 227.447 107.562C227.829 102.978 224.012 99.1616 222.849 94.7107C222.332 92.612 222.404 90.4119 223.056 88.3511C223.708 86.2903 224.916 84.4481 226.548 83.026C229.15 85.2983 229.056 89.2899 228.753 92.7255C228.344 97.3517 229.641 99.6451 229.232 104.274C230.879 104.214 230.58 105.271 231.282 103.782C231.985 102.292 232.121 100.612 232.255 98.9713C232.741 93.0367 233.332 87.1123 234.027 81.1979C234.372 78.2397 234.766 75.2875 235.145 72.3323C235.375 70.5344 235.344 68.8544 236.296 67.259C237.616 65.0501 239.861 63.4033 242.478 63.2794Z" fill="#CF8349"/>
<path d="M245.329 68.6701C246.716 68.235 248.209 68.6338 249.603 69.0478C252.067 69.777 254.516 70.5475 256.952 71.3594C258.942 72.0211 260.959 72.7312 262.644 73.9791C264.391 75.2724 265.673 77.0703 266.942 78.838C267.851 80.1101 268.76 81.3973 269.365 82.8416C270.153 84.7332 270.365 86.8061 270.577 88.8427C270.716 89.7215 270.705 90.6175 270.544 91.4927C270.259 92.4428 269.759 93.3146 269.081 94.0399C268.038 95.2712 266.829 96.3522 265.488 97.2519C261.923 99.6451 257.612 100.642 253.414 101.522C249.667 102.304 245.892 103.032 242.069 103.268C240.582 103.362 238.855 103.268 237.947 102.096C237.688 101.73 237.484 101.329 237.341 100.905C235.107 95.004 234.14 88.7009 234.502 82.4035C234.535 81.2557 234.713 80.1165 235.032 79.0132C235.347 78.1303 235.737 77.276 236.199 76.4599C237.347 74.2934 238.555 72.0513 240.534 70.6009C242.602 69.0901 245.283 68.6127 247.849 68.7094" fill="#A1616A"/>
<path opacity="0.06" d="M259.284 91.0788C258.094 91.8795 257.679 93.4266 257.527 94.8528C256.882 100.917 259.39 106.921 259.224 113.016C259.09 117.851 257.279 122.492 255.492 127.003C252.444 134.699 250.857 143.057 250.242 151.309C249.627 159.562 248.728 168.155 244.287 175.135C243.278 176.716 242.103 178.184 241.115 179.774C240.079 181.435 239.258 183.218 238.343 184.947C235.648 190.051 232.173 194.707 228.044 198.746C226.832 199.925 225.548 201.067 224.003 201.747C223.008 202.178 221.936 202.406 220.85 202.417C219.765 202.429 218.689 202.223 217.684 201.813C215.612 200.958 213.867 199.031 213.783 196.794C213.707 194.794 214.903 192.99 216.103 191.389C220.169 185.963 224.844 181.02 230.037 176.655C230.979 175.863 231.973 175.045 232.461 173.915C233.009 172.612 232.785 171.135 232.855 169.723C232.967 167.472 233.845 165.336 234.369 163.142C236.49 154.231 232.721 144.502 235.787 135.869C236.468 133.95 237.48 132.116 237.719 130.094C237.889 128.68 237.535 127.1 236.65 126.039C235.819 125.086 235.353 123.87 235.335 122.607C235.335 122.347 235.335 122.09 235.369 121.836C235.738 117.881 236.105 113.907 235.905 109.94C235.705 105.973 234.914 101.984 233.079 98.4577C232.127 96.6296 230.898 94.9193 230.31 92.9462C229.365 89.7523 230.237 86.2985 231.646 83.2769C232.745 80.9139 234.212 78.6628 236.259 77.0432C240.064 74.0366 245.759 73.6891 249.924 76.176C252.996 78.0071 255.098 81.0862 256.803 84.2257C258.027 86.5191 259.318 88.462 259.284 91.0788Z" fill="black"/>
<path d="M259.975 91.0788C258.784 91.8795 258.369 93.4266 258.218 94.8528C257.573 100.917 260.081 106.921 259.914 113.016C259.781 117.851 257.97 122.492 256.182 127.003C253.135 134.699 251.551 143.057 250.933 151.309C250.315 159.562 249.418 168.155 244.977 175.135C243.969 176.716 242.796 178.184 241.806 179.774C240.773 181.435 239.949 183.218 239.034 184.947C236.338 190.051 232.863 194.706 228.735 198.746C227.523 199.925 226.236 201.067 224.691 201.747C223.695 202.178 222.623 202.406 221.538 202.417C220.453 202.429 219.376 202.223 218.372 201.813C216.303 200.958 214.558 199.031 214.473 196.794C214.395 194.794 215.591 192.99 216.794 191.389C220.859 185.963 225.534 181.02 230.728 176.655C231.67 175.863 232.667 175.045 233.151 173.915C233.703 172.612 233.475 171.135 233.545 169.723C233.657 167.472 234.536 165.336 235.06 163.142C237.18 154.231 233.412 144.502 236.477 135.869C237.159 133.95 238.174 132.116 238.413 130.094C238.58 128.68 238.228 127.1 237.344 126.039C236.497 125.093 236.018 123.875 235.993 122.607C235.993 122.347 235.993 122.09 236.026 121.836C236.393 117.881 236.759 113.907 236.559 109.94C236.359 105.973 235.569 101.984 233.733 98.4577C232.782 96.6296 231.552 94.9193 230.964 92.9462C230.019 89.7523 230.892 86.2985 232.3 83.2769C233.403 80.9139 234.866 78.6628 236.914 77.0432C240.718 74.0366 246.413 73.6891 250.578 76.176C253.65 78.0071 255.752 81.0862 257.458 84.2257C258.712 86.5191 259.996 88.462 259.975 91.0788Z" fill="#A1616A"/>
<path d="M290.61 169.983L290.349 170.062L290.61 169.983Z" fill="#464353"/>
<path d="M237.553 183.466C237.564 183.364 237.582 183.263 237.607 183.164L237.553 183.466Z" fill="#464353"/>
<path d="M302.499 162.731C303.371 161.725 304.716 161.275 306.01 160.939C308.094 160.402 310.223 160.056 312.371 159.906C313.704 159.763 315.052 159.846 316.357 160.151C317.648 160.504 318.872 161.272 319.526 162.435C320.104 163.463 320.195 164.683 320.271 165.859C320.429 168.276 320.574 170.693 320.174 173.074C319.917 174.585 319.435 176.048 319.123 177.546C318.111 182.46 318.99 187.545 318.899 192.561C318.878 193.631 318.808 194.728 318.357 195.698C317.875 196.728 317.009 197.511 316.164 198.284C315.234 199.121 314.288 199.964 313.168 200.523C311.508 201.354 309.596 201.493 307.739 201.551C306.609 201.584 305.446 201.587 304.407 201.173C303.368 200.759 302.432 199.828 302.356 198.701C302.235 196.788 304.398 195.537 305.016 193.724C305.507 192.28 304.943 190.685 304.162 189.37C302.909 187.275 301.12 185.549 298.979 184.369C298.185 183.934 297.34 183.569 296.68 182.955C296.019 182.342 295.571 181.39 295.853 180.538C296.189 179.508 297.392 179.027 298.473 178.924C299.554 178.822 300.696 178.9 301.669 178.42C302.535 177.994 303.138 177.172 303.553 176.305C304.436 174.453 304.559 172.331 303.895 170.391C303.633 169.653 303.252 168.962 302.768 168.346C302.314 167.765 301.381 167.276 301.057 166.641C300.481 165.499 301.726 163.638 302.499 162.731Z" fill="#CF8349"/>
<path opacity="0.06" d="M284.896 118.942C279.892 114.53 272.916 113.33 266.373 111.992C263.002 111.305 259.648 110.539 256.31 109.695C254.116 109.139 251.917 108.547 249.645 108.393C247.373 108.239 245.035 108.556 243.09 109.71C241.145 110.865 239.679 112.956 239.667 115.213C239.667 116.119 239.882 117.008 239.816 117.905C239.71 119.35 238.907 120.625 238.359 121.975C237.52 124.11 237.391 126.458 237.992 128.671C238.961 132.198 241.754 135.304 241.512 138.945C241.109 145.04 241.233 151.409 242.487 157.377C243.741 163.345 245.308 169.34 245.271 175.447C245.235 181.553 243.381 187.974 238.81 192.042C241.907 194.942 245.695 197.007 249.815 198.04C253.338 198.919 257.527 198.831 260.035 196.211C260.617 195.607 261.099 194.8 260.978 193.969C260.853 193.445 260.632 192.948 260.326 192.504C258.603 189.425 258.812 185.63 259.575 182.191C260.338 178.752 261.644 175.41 261.974 171.899C262.216 169.352 261.944 166.762 262.432 164.248C262.807 162.324 263.619 160.511 264.107 158.61C265.546 152.972 264.034 147.052 262.532 141.435C263.789 144.321 266.167 146.572 268.626 148.53C272.358 151.497 276.872 154.117 281.615 153.591C285.838 153.12 289.434 150.192 291.915 146.756C291.936 142.782 293.317 139.027 293.072 135.062C292.914 133.321 292.601 131.597 292.139 129.91C291.675 128.025 291.2 126.121 290.321 124.39C289.161 122.09 286.829 120.643 284.896 118.942Z" fill="black"/>
<path d="M285.932 118.942C280.928 114.53 273.955 113.33 267.409 111.992C264.038 111.305 260.685 110.539 257.349 109.695C255.155 109.139 252.953 108.547 250.684 108.393C248.415 108.239 246.077 108.556 244.132 109.71C242.187 110.865 240.718 112.956 240.709 115.213C240.709 116.119 240.921 117.008 240.855 117.905C240.752 119.35 239.931 120.625 239.398 121.975C238.56 124.111 238.433 126.458 239.034 128.671C240 132.198 242.793 135.304 242.554 138.945C242.148 145.04 242.272 151.409 243.526 157.377C244.78 163.345 246.347 169.34 246.31 175.447C246.274 181.553 244.408 187.953 239.834 192.014C242.931 194.914 246.719 196.979 250.839 198.012C254.362 198.892 258.554 198.804 261.059 196.184C261.641 195.58 262.123 194.773 262.001 193.942C261.876 193.418 261.656 192.921 261.35 192.477C259.627 189.398 259.836 185.602 260.599 182.164C261.362 178.725 262.668 175.383 263.001 171.872C263.24 169.325 262.968 166.735 263.458 164.221C263.831 162.296 264.646 160.483 265.131 158.583C266.569 152.944 265.061 147.025 263.555 141.408C264.813 144.293 267.19 146.544 269.653 148.502C273.385 151.47 277.896 154.09 282.639 153.564C286.862 153.092 290.458 150.164 292.939 146.729C292.957 142.755 294.338 138.999 294.093 135.035C293.934 133.294 293.622 131.57 293.16 129.883C292.699 127.998 292.221 126.094 291.342 124.362C290.215 122.09 287.865 120.643 285.932 118.942Z" fill="#A1616A"/>
<path d="M251.169 195.193C248.947 193.843 247.028 192.05 245.532 189.926C244.992 189.165 244.508 188.355 243.835 187.708C243.163 187.062 242.251 186.581 241.321 186.678C240.27 186.787 239.428 187.584 238.761 188.406C236.974 190.615 235.823 193.317 233.839 195.356C231.549 197.716 228.353 198.982 225.163 199.792C221.974 200.602 218.681 201.028 215.555 202.052C214.573 202.372 213.54 202.808 213.01 203.693C212.338 204.82 212.707 206.298 213.416 207.416C214.722 209.531 216.969 210.893 219.314 211.703C221.659 212.513 224.139 212.836 226.584 213.314C230.904 214.157 235.329 215.508 239.628 214.556C241.342 214.175 242.96 213.438 244.693 213.117C248.631 212.386 252.693 213.864 256.646 213.272C258.557 212.984 260.363 212.223 262.098 211.365C262.969 210.99 263.76 210.453 264.431 209.785C265.064 209.084 265.446 208.089 265.185 207.183C265.037 206.66 264.694 206.219 264.467 205.726C264.11 204.965 264.037 204.11 263.952 203.273C263.625 200.087 263.07 196.928 262.292 193.821C262.023 192.736 261.62 191.528 260.605 191.053C260.398 190.942 260.156 190.915 259.929 190.978C259.569 191.114 259.451 191.549 259.342 191.914C259.044 192.925 258.475 193.836 257.696 194.546C256.916 195.257 255.956 195.741 254.92 195.946C253.884 196.151 252.812 196.069 251.819 195.709C250.827 195.348 249.953 194.724 249.291 193.903" fill="#CF8349"/>
<path opacity="0.06" d="M234.829 61.1585C234.829 61.8733 234.789 62.5875 234.708 63.2978C233.754 63.4404 232.779 63.3563 231.863 63.0523C230.947 62.7483 230.116 62.233 229.438 61.5483C228.798 60.8714 228.32 60.0525 227.687 59.3696C227.054 58.6867 226.172 58.1187 225.263 58.1912C224.488 58.2486 223.815 58.7381 223.285 59.3062C222.595 60.0458 222.09 60.9371 221.81 61.9078C221.607 62.5937 221.507 63.3733 220.938 63.8296C220.368 64.2859 219.668 64.2557 218.993 64.2315C218.117 64.2013 217.209 64.159 216.436 63.748C214.982 62.9654 214.491 61.1736 213.952 59.6144C213.043 56.9946 210.999 52.0391 207.821 51.5103C206.307 51.2595 204.465 52.0572 203.277 52.9184C201.487 54.2147 200.166 55.0547 197.852 55.0184C199.311 50.7709 202.233 47.1774 206.099 44.8769C209.964 42.5764 214.522 41.7182 218.963 42.4549C223.403 43.1915 227.437 45.4754 230.348 48.9001C233.259 52.3248 234.858 56.6685 234.86 61.1585H234.829Z" fill="black"/>
<path d="M197.825 54.3264C197.279 54.3381 196.735 54.2522 196.219 54.0726C194.75 53.4985 194.035 51.8063 193.911 50.2381C193.717 47.848 194.517 45.5032 195.32 43.2399C195.489 42.7474 195.692 42.2186 196.135 41.9436C196.493 41.7683 196.884 41.6705 197.283 41.6566C199.458 41.3544 201.345 40.0279 202.95 38.5413C204.556 37.0546 206.004 35.3685 207.797 34.1296C212.553 30.8572 219.611 31.4676 223.724 35.5045C225.354 37.0999 226.754 39.2634 229.013 39.6381C230.316 39.8527 231.712 39.4055 232.951 39.8889C233.86 40.2425 234.508 41.0432 235.029 41.8621C236.72 44.509 237.513 47.6455 237.777 50.7729C238.04 53.9003 237.798 57.0459 237.553 60.1733C237.567 60.6415 237.446 61.1039 237.204 61.5058C237.011 61.7377 236.767 61.9235 236.493 62.0497C235.341 62.6161 234.04 62.8064 232.773 62.5938C231.507 62.3812 230.34 61.7765 229.438 60.8653C228.795 60.1914 228.32 59.3726 227.687 58.6866C227.054 58.0007 226.172 57.4387 225.263 57.5112C224.491 57.5686 223.812 58.0581 223.285 58.6262C222.595 59.3658 222.09 60.2571 221.81 61.2279C221.61 61.9138 221.507 62.6934 220.938 63.1466C220.368 63.5999 219.668 63.5757 218.99 63.5515C218.117 63.5183 217.209 63.479 216.436 63.065C214.979 62.2854 214.488 60.4936 213.952 58.9344C213.044 56.3146 211.002 51.3561 207.821 50.8303C206.307 50.5765 204.465 51.3773 203.277 52.2384C201.46 53.5257 200.151 54.3657 197.825 54.3264Z" fill="#464353"/>
<path opacity="0.06" d="M97.5099 167.161C97.3009 168.539 96.0347 169.615 95.1411 170.684C92.7117 173.609 90.2489 176.543 87.5317 179.22C84.6237 182.082 81.4309 184.632 78.2412 187.183L74.1033 190.485C73.5928 190.951 72.9945 191.31 72.3433 191.543C71.5805 191.733 70.7744 191.637 70.0775 191.274C70.1381 191.153 70.2017 191.041 70.2714 190.929L75.2332 182.635C76.2086 181.009 76.8477 179.529 77.9595 178.003C79.6346 175.718 81.3249 173.422 83.3878 171.485C85.9959 169.034 89.3402 167.255 92.4421 165.484C92.8904 164.142 94.7685 163.771 96.0377 164.405C96.5081 164.648 96.9316 164.973 97.2888 165.363C97.5161 165.934 97.5923 166.553 97.5099 167.161Z" fill="black"/>
<path d="M75.5785 182.977L70.6167 191.274C70.4137 191.609 70.2047 191.99 70.2926 192.371C70.404 192.69 70.6167 192.965 70.8984 193.153C72.8007 194.698 74.9091 196.326 75.5058 198.698C75.9329 200.39 75.5058 202.203 75.8875 203.901C76.5872 206.965 79.674 208.827 82.5941 210.005C89.1372 212.646 96.4012 213.661 103.353 212.423C110.305 211.184 116.903 207.654 121.404 202.227C122.786 200.56 123.967 198.734 125.279 197.012C128.914 192.253 133.527 188.346 138.104 184.478C143.996 179.499 147.467 172.071 152.644 166.348C153.586 165.306 154.625 164.233 155.976 163.889C156.734 163.698 157.794 163.979 157.824 164.759C157.894 166.27 159.112 167.506 159.945 168.769C163.083 173.555 166.367 178.489 171.216 181.541C173.87 183.215 176.878 184.24 179.877 185.167C187.48 187.53 195.232 189.398 202.974 191.247C203.365 190.467 203.834 189.729 204.374 189.044C205.177 188.062 206.234 187.313 207.04 186.325C208.515 184.545 209.033 182.191 209.505 179.931C204.88 177.105 200.133 174.19 195.571 171.252C193.275 169.778 190.964 168.27 189.104 166.276C187.892 164.964 186.874 163.463 185.66 162.142C184.417 160.861 183.078 159.676 181.655 158.598L170.75 149.886C167.618 147.387 164.425 144.75 161.359 142.163C159.636 140.707 157.724 139.175 155.471 139.105C153.541 139.045 151.766 140.075 150.106 141.066C140.356 146.89 130.461 152.452 120.42 157.752C118.387 158.821 116.345 159.885 114.407 161.115C110.635 163.509 107.286 166.508 104.495 169.992C103.983 170.63 103.335 171.355 102.523 171.259C102.3 171.226 102.085 171.151 101.89 171.038C100.639 170.37 99.8727 169.08 99.1638 167.856C98.455 166.632 97.6644 165.345 96.3952 164.711C95.1259 164.076 93.2508 164.448 92.7995 165.792C89.6824 167.614 86.3503 169.379 83.7392 171.83C81.6763 173.766 79.986 176.06 78.3108 178.347C77.1931 179.873 76.5509 181.354 75.5785 182.977Z" fill="#464353"/>
<path opacity="0.06" d="M67.4512 132.37C67.4512 132.37 72.4403 134.578 76.0177 137.071L67.4512 132.37Z" fill="black"/>
<path d="M317.318 136.911C317.408 139.731 317.481 142.556 317.448 145.372C317.43 146.865 317.366 148.421 316.648 149.729C316.136 150.669 315.327 151.403 314.528 152.122L309.539 156.634C307.991 158.033 306.322 159.492 304.259 159.84C301.899 160.239 299.594 159.093 297.325 158.329C295.04 157.561 292.647 157.16 290.237 157.141C288.855 157.141 287.462 157.25 286.099 157.033C285.113 156.846 284.146 156.571 283.209 156.214L278.704 154.655C278.832 153.522 279.916 152.799 280.825 152.083C284.051 149.472 285.466 145.275 286.483 141.26C287.311 138.124 287.9 134.932 288.246 131.708C288.401 130.113 288.471 128.49 288.134 126.922C287.817 125.657 287.371 124.428 286.801 123.254L285.217 119.691C284.308 117.679 282.491 116.784 280.64 115.597C283.433 116.654 286.838 117.068 288.961 119.165C289.371 119.63 289.856 120.022 290.397 120.326C290.976 120.601 291.633 120.628 292.266 120.73C295.42 121.202 298.1 123.178 300.705 125.006C303.894 127.246 307.172 129.35 310.538 131.318C312.053 132.207 313.616 133.08 314.891 134.292C316.167 135.503 317.166 137.117 317.248 138.873" fill="#464353"/>
<path opacity="0.06" d="M45.6712 131.962C41.7 132.744 39.634 137.401 39.8673 141.429C40.0914 145.026 41.5728 148.432 44.0536 151.053C45.7106 152.79 47.7765 154.132 49.2729 156.008C51.4843 158.776 52.2537 162.435 54.2317 165.375C55.6676 167.509 57.682 169.183 59.6843 170.787C64.3008 174.461 69.0677 177.939 73.9851 181.221C75.9844 182.553 78.1715 183.901 80.5767 183.85C82.8425 183.801 84.9296 182.475 86.4079 180.759C87.8861 179.042 88.8312 176.957 89.7915 174.903C93.2508 167.379 96.7344 159.773 98.3883 151.663C98.9063 149.116 99.2547 146.49 100.412 144.16C101.321 142.347 102.666 140.794 103.865 139.156C106.699 135.27 108.688 130.836 109.705 126.139C110.366 123.075 110.587 119.794 109.502 116.863C108.418 113.932 105.786 111.39 102.65 111.161C100.17 110.979 97.734 112.249 96.068 114.095C94.4019 115.941 93.4205 118.301 92.751 120.691C91.7913 124.13 91.4226 127.705 91.6605 131.267C91.8544 134.14 92.442 137.041 91.9452 139.882C91.5939 141.885 90.7184 143.755 89.8521 145.599C87.6135 150.355 85.3386 155.171 81.955 159.196C80.8523 160.507 79.3347 161.834 77.6474 161.526C75.3149 161.103 74.697 158.157 73.5459 156.087C72.1343 153.549 69.4565 152.023 67.3573 150.007C64.3705 147.137 62.5802 143.287 60.4567 139.734C58.3333 136.18 55.5858 132.672 51.6721 131.309C47.7583 129.946 42.5421 131.696 41.5364 135.709" fill="black"/>
<path opacity="0.06" d="M48.6671 134.721C44.6928 135.503 39.634 136.014 39.8824 140.048C40.104 143.646 41.5857 147.052 44.0688 149.672C45.7257 151.412 47.7916 152.754 49.2881 154.63C51.4994 157.398 52.2688 161.054 54.2469 163.997C55.6827 166.134 57.6971 167.808 59.6994 169.409C64.3159 173.086 69.0829 176.563 74.0003 179.843C75.9995 181.179 78.1866 182.526 80.5918 182.475C82.8577 182.426 84.9448 181.097 86.423 179.384C87.9013 177.67 88.8464 175.582 89.8066 173.525C93.266 166.001 96.7496 158.395 98.4035 150.285C98.9215 147.741 99.2699 145.112 100.427 142.785C101.336 140.972 102.681 139.419 103.88 137.778C106.715 133.894 108.704 129.461 109.721 124.764C110.381 121.697 110.602 118.419 109.518 115.485C108.433 112.551 105.801 110.015 102.666 109.783C100.185 109.602 97.7492 110.874 96.0831 112.717C94.4171 114.56 93.4356 116.923 92.7662 119.316C91.8063 122.755 91.4375 126.331 91.6756 129.892C91.8695 132.769 92.4572 135.669 91.9604 138.507C91.609 140.513 90.7336 142.383 89.8672 144.227C87.6286 148.983 85.3537 153.796 81.9701 157.824C80.8675 159.136 79.3498 160.459 77.6626 160.154C75.3301 159.728 74.7121 156.782 73.561 154.715C72.1494 152.177 69.4716 150.651 67.3724 148.635C64.3856 145.768 62.5953 141.915 60.4719 138.362C58.3484 134.808 55.6009 131.303 51.6872 129.937C47.7735 128.571 52.6747 137.319 51.666 141.332" fill="black"/>
<path d="M45.6712 131.27C41.7 132.052 39.634 136.709 39.8673 140.737C40.0907 144.335 41.5721 147.742 44.0536 150.364C45.7106 152.101 47.7765 153.443 49.2729 155.319C51.4843 158.087 52.2537 161.746 54.2317 164.686C55.6676 166.823 57.682 168.497 59.6843 170.101C64.3008 173.775 69.0677 177.252 73.9851 180.532C75.9844 181.867 78.1715 183.215 80.5767 183.164C82.8425 183.115 84.9296 181.789 86.4079 180.073C87.8861 178.356 88.8312 176.271 89.7915 174.217C93.2508 166.693 96.7344 159.087 98.3883 150.974C98.9063 148.43 99.2547 145.801 100.412 143.474C101.321 141.661 102.666 140.108 103.865 138.467C106.7 134.583 108.689 130.15 109.705 125.453C110.366 122.386 110.587 119.108 109.502 116.174C108.418 113.24 105.786 110.704 102.65 110.475C100.17 110.29 97.734 111.563 96.068 113.409C94.4019 115.255 93.4205 117.615 92.751 120.005C91.7913 123.444 91.4226 127.019 91.6605 130.581C91.8544 133.454 92.442 136.355 91.9452 139.193C91.5939 141.199 90.7184 143.069 89.8521 144.913C87.6135 149.669 85.3386 154.485 81.955 158.51C80.8523 159.821 79.3347 161.145 77.6474 160.84C75.3149 160.414 74.697 157.471 73.5459 155.401C72.1343 152.86 69.4565 151.334 67.3573 149.321C64.3705 146.451 62.5802 142.601 60.4567 139.048C58.3333 135.494 55.5858 131.989 51.6721 130.626C47.7583 129.263 42.5421 131.013 41.5364 135.026" fill="#FBBEBE"/>
<g opacity="0.06">
<path opacity="0.06" d="M30.4919 107.133C29.2331 105.059 28.1752 102.871 27.3325 100.597L27.2295 100.295C26.5902 99.6106 26.0526 98.8382 25.6331 98.0016C24.9837 96.5763 24.6312 95.0343 24.5971 93.4691C24.5971 93.4117 24.5971 93.3543 24.5971 93.2969C24.3803 93.7804 24.2207 94.2874 24.1215 94.8077C23.8186 96.5119 24.3184 98.2524 24.9182 99.878C25.7615 102.152 26.8194 104.34 28.0776 106.414C29.9588 109.55 32.3609 112.572 32.7335 116.171C33.2939 121.555 29.2227 126.296 28.217 131.618C27.4476 135.682 28.423 140.223 26.245 143.74C25.3744 145.067 24.2054 146.172 22.8311 146.968C21.9691 147.516 21.0254 147.923 20.0351 148.176C19.8545 148.39 19.6603 148.592 19.4535 148.781C21.3771 149.445 23.5187 148.729 25.2514 147.666C26.6252 146.868 27.794 145.762 28.6653 144.435C30.8433 140.918 29.877 136.377 30.6343 132.313C31.643 126.994 35.7143 122.25 35.1539 116.866C34.7782 113.246 32.3791 110.227 30.4919 107.133Z" fill="black"/>
<path opacity="0.06" d="M65.4489 80.5423C64.6704 78.7444 63.0255 77.4693 61.3352 76.4691C59.1925 75.1866 56.8608 74.2485 54.4256 73.6892C55.9884 74.2334 57.4924 74.9329 58.9149 75.7772C60.6052 76.7804 62.247 78.0525 63.0316 79.8534C63.8161 81.6543 63.4254 84.0837 61.7411 85.0869C60.5537 85.797 59.0724 85.6701 57.6881 85.6399C56.4917 85.6126 55.295 85.6732 54.1075 85.8212C53.6788 85.852 53.2596 85.9627 52.8716 86.1475C52.3662 86.4742 51.968 86.9417 51.7266 87.4921C51.2395 88.4213 50.9119 89.4253 50.7573 90.4624C50.5876 91.6227 50.6028 92.8949 49.8758 93.8165C48.8882 95.0704 47.3433 94.8801 45.9378 95.1279C44.7172 95.3615 43.5473 95.8075 42.4815 96.4453C40.1611 97.8443 38.5041 100.401 38.3981 103.129C38.3618 104.102 38.4951 105.096 38.2315 106.033C38.0615 106.579 37.7948 107.091 37.4439 107.544C37.9807 108.116 38.4502 108.748 38.8434 109.426C39.5856 108.62 40.358 107.774 40.6609 106.722C40.9275 105.785 40.7912 104.788 40.8306 103.815C40.9366 101.096 42.5936 98.5333 44.9139 97.1312C45.9789 96.4923 47.1492 96.0473 48.3702 95.8168C49.7697 95.566 51.3146 95.7564 52.3082 94.5024C53.0352 93.5959 53.017 92.3087 53.1897 91.1483C53.3433 90.1114 53.6699 89.1074 54.156 88.1781C54.399 87.6326 54.7971 87.1703 55.3011 86.8485C55.688 86.6612 56.1077 86.5504 56.537 86.5222C57.7245 86.3747 58.9211 86.3131 60.1175 86.3379C61.5018 86.3711 62.9831 86.495 64.1705 85.7849C65.8427 84.7726 66.2274 82.3553 65.4489 80.5423Z" fill="black"/>
</g>
<path opacity="0.06" d="M45.6137 109.414C45.6137 109.414 49.1912 112.484 55.9856 110.623C55.9856 110.617 51.7781 112.27 45.6137 109.414Z" fill="black"/>
<path opacity="0.06" d="M237.486 57.6229C237.493 58.0895 237.367 58.5485 237.123 58.9464C236.929 59.1774 236.685 59.3622 236.411 59.4873C235.26 60.0542 233.959 60.2452 232.693 60.0331C231.428 59.821 230.261 59.2167 229.359 58.3058C228.717 57.629 228.241 56.795 227.608 56.1272C226.975 55.4594 226.093 54.8762 225.185 54.9488C224.412 55.0092 223.737 55.4987 223.206 56.0638C222.52 56.8058 222.015 57.6962 221.731 58.6654C221.534 59.3543 221.428 60.1309 220.862 60.5872C220.295 61.0434 219.593 61.0132 218.914 60.9891C218.039 60.9588 217.13 60.9196 216.36 60.5056C214.903 59.726 214.413 57.9311 213.874 56.375C212.965 53.7522 210.923 48.7967 207.745 48.2679C206.231 48.0171 204.386 48.8178 203.202 49.676C201.411 50.9723 200.091 51.8123 197.773 51.7911C197.227 51.8016 196.684 51.7157 196.168 51.5373C194.835 51.0146 194.123 49.5702 193.908 48.1379C193.826 48.7944 193.808 49.4573 193.857 50.1171C193.984 51.6823 194.699 53.3745 196.168 53.9516C196.684 54.13 197.227 54.2159 197.773 54.2054C200.091 54.2417 201.408 53.4017 203.202 52.1054C204.392 51.2472 206.231 50.4435 207.745 50.6973C210.911 51.211 212.971 56.1665 213.861 58.7863C214.401 60.3454 214.891 62.1403 216.348 62.9199C217.118 63.3308 218.027 63.3731 218.902 63.4034C219.581 63.4275 220.326 63.4306 220.85 63.0015C221.374 62.5724 221.522 61.7656 221.719 61.0797C222.002 60.1102 222.507 59.2196 223.194 58.4781C223.724 57.913 224.406 57.4235 225.172 57.3631C226.105 57.2905 226.99 57.8556 227.596 58.5415C228.202 59.2274 228.704 60.0523 229.347 60.7201C230.249 61.631 231.415 62.2353 232.681 62.4474C233.947 62.6595 235.248 62.4685 236.399 61.9016C236.673 61.7754 236.916 61.5908 237.11 61.3607C237.355 60.9619 237.481 60.5018 237.474 60.0342C237.711 57.4891 237.812 54.9332 237.777 52.3773C237.753 54.1269 237.622 55.8764 237.486 57.6229Z" fill="black"/>
<path d="M27.2052 186.527C27.2052 186.527 27.6869 185.992 26.7811 185.78V184.901H27.3264C27.3252 183.839 26.9584 182.809 26.2874 181.984C25.6164 181.159 24.6818 180.589 23.6399 180.369V179.302H23.7822V177.915H20.2774V179.302H20.3774V180.381C19.3452 180.612 18.4227 181.186 17.762 182.01C17.1012 182.834 16.7415 183.858 16.7424 184.913H17.224V185.756C17.224 185.756 16.0759 186.297 17.224 187.267C18.3721 188.237 18.1934 188.938 18.1934 188.938C18.1934 188.938 17.7117 190.751 16.7454 190.987V207.796C16.745 208.287 16.8415 208.773 17.0295 209.226C17.2175 209.68 17.4932 210.092 17.8409 210.439C18.1887 210.786 18.6015 211.061 19.056 211.249C19.5104 211.437 19.9976 211.534 20.4895 211.534H23.449C24.4428 211.534 25.3959 211.14 26.0986 210.439C26.8013 209.738 27.1961 208.788 27.1961 207.796V190.987C27.1961 190.987 25.5028 189.721 25.8057 188.938C26.2121 188.101 26.6799 187.295 27.2052 186.527Z" fill="#464353"/>
</g>
<defs>
<linearGradient id="paint0_linear" x1="168.124" y1="214.498" x2="168.124" y2="29.9053" gradientUnits="userSpaceOnUse">
<stop stop-color="#808080" stop-opacity="0.25"/>
<stop offset="0.54" stop-color="#808080" stop-opacity="0.12"/>
<stop offset="1" stop-color="#808080" stop-opacity="0.1"/>
</linearGradient>
<clipPath id="clip0">
<rect width="349" height="233" fill="white"/>
</clipPath>
</defs>
</svg>
